solid OpenSCAD_Model
  facet normal -1 0 0
    outer loop
      vertex -25 0 0
      vertex -25 4 5
      vertex -25 4 0
    endloop
  endfacet
  facet normal -1 -0 0
    outer loop
      vertex -25 4 5
      vertex -25 0 0
      vertex -25 0 5
    endloop
  endfacet
  facet normal 0 0 -1
    outer loop
      vertex -21 0 4
      vertex 25 4 4
      vertex 25 0 4
    endloop
  endfacet
  facet normal -0 0 -1
    outer loop
      vertex 25 4 4
      vertex -21 0 4
      vertex -21 4 4
    endloop
  endfacet
  facet normal 1 -0 0
    outer loop
      vertex -21 0 4
      vertex -21 4 0
      vertex -21 4 4
    endloop
  endfacet
  facet normal 1 0 0
    outer loop
      vertex -21 4 0
      vertex -21 0 4
      vertex -21 0 0
    endloop
  endfacet
  facet normal 0 1 0
    outer loop
      vertex 29 4 5
      vertex 25 4 4
      vertex -25 4 5
    endloop
  endfacet
  facet normal 0 1 -0
    outer loop
      vertex 29 4 0
      vertex 25 4 4
      vertex 29 4 5
    endloop
  endfacet
  facet normal 0 1 0
    outer loop
      vertex 25 4 4
      vertex 29 4 0
      vertex 25 4 0
    endloop
  endfacet
  facet normal 0 1 -0
    outer loop
      vertex -21 4 4
      vertex -25 4 5
      vertex 25 4 4
    endloop
  endfacet
  facet normal 0 1 0
    outer loop
      vertex -25 4 0
      vertex -21 4 4
      vertex -21 4 0
    endloop
  endfacet
  facet normal 0 1 0
    outer loop
      vertex -21 4 4
      vertex -25 4 0
      vertex -25 4 5
    endloop
  endfacet
  facet normal 0 0 -1
    outer loop
      vertex -25 0 0
      vertex -21 4 0
      vertex -21 0 0
    endloop
  endfacet
  facet normal -0 0 -1
    outer loop
      vertex -21 4 0
      vertex -25 0 0
      vertex -25 4 0
    endloop
  endfacet
  facet normal 0 -1 0
    outer loop
      vertex -25 0 5
      vertex -21 0 4
      vertex 29 0 5
    endloop
  endfacet
  facet normal 0 -1 0
    outer loop
      vertex -25 0 0
      vertex -21 0 4
      vertex -25 0 5
    endloop
  endfacet
  facet normal 0 -1 -0
    outer loop
      vertex -21 0 4
      vertex -25 0 0
      vertex -21 0 0
    endloop
  endfacet
  facet normal 0 -1 0
    outer loop
      vertex 25 0 4
      vertex 29 0 5
      vertex -21 0 4
    endloop
  endfacet
  facet normal 0 -1 0
    outer loop
      vertex 29 0 0
      vertex 25 0 4
      vertex 25 0 0
    endloop
  endfacet
  facet normal 0 -1 0
    outer loop
      vertex 25 0 4
      vertex 29 0 0
      vertex 29 0 5
    endloop
  endfacet
  facet normal -1 0 0
    outer loop
      vertex 25 0 0
      vertex 25 4 4
      vertex 25 4 0
    endloop
  endfacet
  facet normal -1 -0 0
    outer loop
      vertex 25 4 4
      vertex 25 0 0
      vertex 25 0 4
    endloop
  endfacet
  facet normal 1 -0 0
    outer loop
      vertex 29 0 5
      vertex 29 4 0
      vertex 29 4 5
    endloop
  endfacet
  facet normal 1 0 0
    outer loop
      vertex 29 4 0
      vertex 29 0 5
      vertex 29 0 0
    endloop
  endfacet
  facet normal 0 0 -1
    outer loop
      vertex 25 0 0
      vertex 29 4 0
      vertex 29 0 0
    endloop
  endfacet
  facet normal -0 0 -1
    outer loop
      vertex 29 4 0
      vertex 25 0 0
      vertex 25 4 0
    endloop
  endfacet
  facet normal -0 0 1
    outer loop
      vertex -25 4 5
      vertex 29 0 5
      vertex 29 4 5
    endloop
  endfacet
  facet normal 0 0 1
    outer loop
      vertex 29 0 5
      vertex -25 4 5
      vertex -25 0 5
    endloop
  endfacet
endsolid OpenSCAD_Model
