solid OpenSCAD_Model
  facet normal -0 0 1
    outer loop
      vertex 5 41 21
      vertex 25 26 21
      vertex 25 41 21
    endloop
  endfacet
  facet normal 0 0 1
    outer loop
      vertex 25 26 21
      vertex 5 41 21
      vertex 5 26 21
    endloop
  endfacet
  facet normal 0 0 -1
    outer loop
      vertex 5 26 15
      vertex 25 41 15
      vertex 25 26 15
    endloop
  endfacet
  facet normal -0 0 -1
    outer loop
      vertex 25 41 15
      vertex 5 26 15
      vertex 5 41 15
    endloop
  endfacet
  facet normal 0 -1 0
    outer loop
      vertex 5 26 15
      vertex 25 26 21
      vertex 5 26 21
    endloop
  endfacet
  facet normal 0 -1 -0
    outer loop
      vertex 25 26 21
      vertex 5 26 15
      vertex 25 26 15
    endloop
  endfacet
  facet normal 1 -0 0
    outer loop
      vertex 25 26 21
      vertex 25 41 15
      vertex 25 41 21
    endloop
  endfacet
  facet normal 1 0 0
    outer loop
      vertex 25 41 15
      vertex 25 26 21
      vertex 25 26 15
    endloop
  endfacet
  facet normal 0 1 -0
    outer loop
      vertex 25 41 15
      vertex 5 41 21
      vertex 25 41 21
    endloop
  endfacet
  facet normal 0 1 0
    outer loop
      vertex 5 41 21
      vertex 25 41 15
      vertex 5 41 15
    endloop
  endfacet
  facet normal -1 0 0
    outer loop
      vertex 5 26 15
      vertex 5 41 21
      vertex 5 41 15
    endloop
  endfacet
  facet normal -1 -0 0
    outer loop
      vertex 5 41 21
      vertex 5 26 15
      vertex 5 26 21
    endloop
  endfacet
endsolid OpenSCAD_Model
